<mxfile host="app.diagrams.net" modified="2021-11-10T07:17:19.201Z" agent="5.0 (Windows NT 10.0; Win64; x64) AppleWebKit/537.36 (KHTML, like Gecko) Chrome/95.0.4638.54 Safari/537.36 Edg/95.0.1020.40" etag="jR1Pz3oZ45Oqlcimz3h9" version="15.7.1" type="github">
  <diagram name="Page-1" id="929967ad-93f9-6ef4-fab6-5d389245f69c">
    <mxGraphModel dx="1730" dy="965" grid="1" gridSize="10" guides="1" tooltips="1" connect="1" arrows="1" fold="1" page="1" pageScale="1.5" pageWidth="1169" pageHeight="826" background="none" math="0" shadow="0">
      <root>
        <mxCell id="0" style=";html=1;" />
        <mxCell id="1" style=";html=1;" parent="0" />
        <mxCell id="xGPptNfb9ShT7Qzi2WH2-21" value="Login By Email Address" style="rounded=0;whiteSpace=wrap;html=1;" vertex="1" parent="1">
          <mxGeometry x="190" y="225" width="160" height="50" as="geometry" />
        </mxCell>
        <mxCell id="xGPptNfb9ShT7Qzi2WH2-22" value="" style="endArrow=classic;html=1;rounded=0;exitX=0.5;exitY=1;exitDx=0;exitDy=0;entryX=0.5;entryY=0;entryDx=0;entryDy=0;" edge="1" parent="1" source="xGPptNfb9ShT7Qzi2WH2-21" target="xGPptNfb9ShT7Qzi2WH2-23">
          <mxGeometry width="50" height="50" relative="1" as="geometry">
            <mxPoint x="390" y="380" as="sourcePoint" />
            <mxPoint x="440" y="365" as="targetPoint" />
          </mxGeometry>
        </mxCell>
        <mxCell id="xGPptNfb9ShT7Qzi2WH2-23" value="Home Screen" style="rounded=0;whiteSpace=wrap;html=1;" vertex="1" parent="1">
          <mxGeometry x="210" y="330" width="120" height="60" as="geometry" />
        </mxCell>
        <mxCell id="xGPptNfb9ShT7Qzi2WH2-31" value="" style="endArrow=classic;html=1;rounded=0;exitX=1;exitY=0.5;exitDx=0;exitDy=0;entryX=0;entryY=0.5;entryDx=0;entryDy=0;" edge="1" parent="1" source="xGPptNfb9ShT7Qzi2WH2-33" target="xGPptNfb9ShT7Qzi2WH2-34">
          <mxGeometry width="50" height="50" relative="1" as="geometry">
            <mxPoint x="560" y="520" as="sourcePoint" />
            <mxPoint x="660" y="520" as="targetPoint" />
          </mxGeometry>
        </mxCell>
        <mxCell id="xGPptNfb9ShT7Qzi2WH2-32" value="Add / Delete / Edit Posts" style="rounded=0;whiteSpace=wrap;html=1;" vertex="1" parent="1">
          <mxGeometry x="110" y="580" width="120" height="60" as="geometry" />
        </mxCell>
        <mxCell id="xGPptNfb9ShT7Qzi2WH2-36" value="" style="edgeStyle=orthogonalEdgeStyle;rounded=0;orthogonalLoop=1;jettySize=auto;html=1;entryX=0.5;entryY=0;entryDx=0;entryDy=0;exitX=0.5;exitY=1;exitDx=0;exitDy=0;" edge="1" parent="1" source="xGPptNfb9ShT7Qzi2WH2-23" target="xGPptNfb9ShT7Qzi2WH2-33">
          <mxGeometry relative="1" as="geometry">
            <Array as="points">
              <mxPoint x="270" y="400" />
              <mxPoint x="170" y="400" />
            </Array>
          </mxGeometry>
        </mxCell>
        <mxCell id="xGPptNfb9ShT7Qzi2WH2-33" value="Home Posts" style="rounded=0;whiteSpace=wrap;html=1;" vertex="1" parent="1">
          <mxGeometry x="110" y="450" width="120" height="60" as="geometry" />
        </mxCell>
        <mxCell id="xGPptNfb9ShT7Qzi2WH2-34" value="Like/Unlike Post" style="rounded=0;whiteSpace=wrap;html=1;" vertex="1" parent="1">
          <mxGeometry x="270" y="450" width="120" height="60" as="geometry" />
        </mxCell>
        <mxCell id="xGPptNfb9ShT7Qzi2WH2-35" value="" style="endArrow=classic;html=1;rounded=0;entryX=0.5;entryY=0;entryDx=0;entryDy=0;exitX=0.5;exitY=1;exitDx=0;exitDy=0;" edge="1" parent="1" source="xGPptNfb9ShT7Qzi2WH2-33" target="xGPptNfb9ShT7Qzi2WH2-32">
          <mxGeometry width="50" height="50" relative="1" as="geometry">
            <mxPoint x="600" y="530" as="sourcePoint" />
            <mxPoint x="650" y="480" as="targetPoint" />
          </mxGeometry>
        </mxCell>
        <mxCell id="xGPptNfb9ShT7Qzi2WH2-37" value="" style="endArrow=classic;html=1;rounded=0;exitX=1;exitY=0.5;exitDx=0;exitDy=0;entryX=0;entryY=0.5;entryDx=0;entryDy=0;" edge="1" parent="1" source="xGPptNfb9ShT7Qzi2WH2-21" target="xGPptNfb9ShT7Qzi2WH2-38">
          <mxGeometry width="50" height="50" relative="1" as="geometry">
            <mxPoint x="600" y="530" as="sourcePoint" />
            <mxPoint x="730" y="255" as="targetPoint" />
          </mxGeometry>
        </mxCell>
        <mxCell id="xGPptNfb9ShT7Qzi2WH2-38" value="User Profile" style="rounded=0;whiteSpace=wrap;html=1;" vertex="1" parent="1">
          <mxGeometry x="540" y="220" width="120" height="60" as="geometry" />
        </mxCell>
        <mxCell id="xGPptNfb9ShT7Qzi2WH2-40" value="" style="endArrow=classic;html=1;rounded=0;exitX=1;exitY=0.5;exitDx=0;exitDy=0;" edge="1" parent="1" source="xGPptNfb9ShT7Qzi2WH2-38">
          <mxGeometry width="50" height="50" relative="1" as="geometry">
            <mxPoint x="600" y="530" as="sourcePoint" />
            <mxPoint x="750" y="250" as="targetPoint" />
          </mxGeometry>
        </mxCell>
        <mxCell id="xGPptNfb9ShT7Qzi2WH2-41" value="Shelter Profile" style="rounded=0;whiteSpace=wrap;html=1;" vertex="1" parent="1">
          <mxGeometry x="750" y="220" width="120" height="60" as="geometry" />
        </mxCell>
        <mxCell id="xGPptNfb9ShT7Qzi2WH2-43" value="Name" style="ellipse;whiteSpace=wrap;html=1;" vertex="1" parent="1">
          <mxGeometry x="470" y="340" width="110" height="50" as="geometry" />
        </mxCell>
        <mxCell id="xGPptNfb9ShT7Qzi2WH2-44" value="Photo" style="ellipse;whiteSpace=wrap;html=1;" vertex="1" parent="1">
          <mxGeometry x="630" y="340" width="110" height="50" as="geometry" />
        </mxCell>
        <mxCell id="xGPptNfb9ShT7Qzi2WH2-45" value="" style="endArrow=classic;html=1;rounded=0;entryX=0.5;entryY=0;entryDx=0;entryDy=0;exitX=0.5;exitY=1;exitDx=0;exitDy=0;" edge="1" parent="1" source="xGPptNfb9ShT7Qzi2WH2-38" target="xGPptNfb9ShT7Qzi2WH2-43">
          <mxGeometry width="50" height="50" relative="1" as="geometry">
            <mxPoint x="600" y="530" as="sourcePoint" />
            <mxPoint x="650" y="480" as="targetPoint" />
            <Array as="points">
              <mxPoint x="600" y="310" />
              <mxPoint x="525" y="310" />
            </Array>
          </mxGeometry>
        </mxCell>
        <mxCell id="xGPptNfb9ShT7Qzi2WH2-46" value="" style="endArrow=classic;html=1;rounded=0;entryX=0.5;entryY=0;entryDx=0;entryDy=0;" edge="1" parent="1" target="xGPptNfb9ShT7Qzi2WH2-44">
          <mxGeometry width="50" height="50" relative="1" as="geometry">
            <mxPoint x="610" y="280" as="sourcePoint" />
            <mxPoint x="650" y="480" as="targetPoint" />
            <Array as="points">
              <mxPoint x="610" y="310" />
              <mxPoint x="650" y="310" />
              <mxPoint x="685" y="310" />
            </Array>
          </mxGeometry>
        </mxCell>
        <mxCell id="xGPptNfb9ShT7Qzi2WH2-47" value="" style="endArrow=classic;html=1;rounded=0;entryX=0.5;entryY=1;entryDx=0;entryDy=0;exitX=0.5;exitY=1;exitDx=0;exitDy=0;" edge="1" parent="1" source="xGPptNfb9ShT7Qzi2WH2-41" target="xGPptNfb9ShT7Qzi2WH2-43">
          <mxGeometry width="50" height="50" relative="1" as="geometry">
            <mxPoint x="600" y="530" as="sourcePoint" />
            <mxPoint x="650" y="480" as="targetPoint" />
            <Array as="points">
              <mxPoint x="810" y="440" />
              <mxPoint x="525" y="440" />
            </Array>
          </mxGeometry>
        </mxCell>
        <mxCell id="xGPptNfb9ShT7Qzi2WH2-48" value="" style="endArrow=classic;html=1;rounded=0;entryX=1;entryY=0.5;entryDx=0;entryDy=0;exitX=0.25;exitY=1;exitDx=0;exitDy=0;" edge="1" parent="1" source="xGPptNfb9ShT7Qzi2WH2-41" target="xGPptNfb9ShT7Qzi2WH2-44">
          <mxGeometry width="50" height="50" relative="1" as="geometry">
            <mxPoint x="600" y="530" as="sourcePoint" />
            <mxPoint x="650" y="480" as="targetPoint" />
            <Array as="points">
              <mxPoint x="780" y="365" />
            </Array>
          </mxGeometry>
        </mxCell>
        <mxCell id="xGPptNfb9ShT7Qzi2WH2-49" value="Phone Number" style="ellipse;whiteSpace=wrap;html=1;" vertex="1" parent="1">
          <mxGeometry x="877" y="335" width="120" height="50" as="geometry" />
        </mxCell>
        <mxCell id="xGPptNfb9ShT7Qzi2WH2-50" value="" style="endArrow=classic;html=1;rounded=0;exitX=0.75;exitY=1;exitDx=0;exitDy=0;entryX=0.5;entryY=0;entryDx=0;entryDy=0;" edge="1" parent="1" source="xGPptNfb9ShT7Qzi2WH2-41" target="xGPptNfb9ShT7Qzi2WH2-49">
          <mxGeometry width="50" height="50" relative="1" as="geometry">
            <mxPoint x="600" y="530" as="sourcePoint" />
            <mxPoint x="650" y="480" as="targetPoint" />
            <Array as="points">
              <mxPoint x="840" y="300" />
              <mxPoint x="937" y="300" />
            </Array>
          </mxGeometry>
        </mxCell>
        <mxCell id="xGPptNfb9ShT7Qzi2WH2-51" value="Home Tabs" style="rounded=0;whiteSpace=wrap;html=1;" vertex="1" parent="1">
          <mxGeometry x="401" y="550" width="120" height="60" as="geometry" />
        </mxCell>
        <mxCell id="xGPptNfb9ShT7Qzi2WH2-52" value="" style="endArrow=classic;html=1;rounded=0;exitX=1;exitY=0.5;exitDx=0;exitDy=0;entryX=0.5;entryY=0;entryDx=0;entryDy=0;" edge="1" parent="1" source="xGPptNfb9ShT7Qzi2WH2-23" target="xGPptNfb9ShT7Qzi2WH2-51">
          <mxGeometry width="50" height="50" relative="1" as="geometry">
            <mxPoint x="600" y="530" as="sourcePoint" />
            <mxPoint x="650" y="480" as="targetPoint" />
            <Array as="points">
              <mxPoint x="460" y="360" />
            </Array>
          </mxGeometry>
        </mxCell>
        <mxCell id="xGPptNfb9ShT7Qzi2WH2-57" value="" style="endArrow=classic;html=1;rounded=0;entryX=0.5;entryY=0;entryDx=0;entryDy=0;exitX=0;exitY=0.5;exitDx=0;exitDy=0;" edge="1" parent="1" source="xGPptNfb9ShT7Qzi2WH2-51" target="xGPptNfb9ShT7Qzi2WH2-72">
          <mxGeometry width="50" height="50" relative="1" as="geometry">
            <mxPoint x="600" y="530" as="sourcePoint" />
            <mxPoint x="240" y="690" as="targetPoint" />
            <Array as="points">
              <mxPoint x="240" y="580" />
            </Array>
          </mxGeometry>
        </mxCell>
        <mxCell id="xGPptNfb9ShT7Qzi2WH2-58" value="" style="endArrow=classic;html=1;rounded=0;exitX=0;exitY=0.75;exitDx=0;exitDy=0;entryX=0.5;entryY=0;entryDx=0;entryDy=0;" edge="1" parent="1" source="xGPptNfb9ShT7Qzi2WH2-51" target="xGPptNfb9ShT7Qzi2WH2-71">
          <mxGeometry width="50" height="50" relative="1" as="geometry">
            <mxPoint x="600" y="530" as="sourcePoint" />
            <mxPoint x="370" y="700" as="targetPoint" />
            <Array as="points">
              <mxPoint x="380" y="595" />
            </Array>
          </mxGeometry>
        </mxCell>
        <mxCell id="xGPptNfb9ShT7Qzi2WH2-60" value="" style="endArrow=classic;html=1;rounded=0;exitX=1;exitY=0.5;exitDx=0;exitDy=0;entryX=0.5;entryY=0;entryDx=0;entryDy=0;" edge="1" parent="1" source="xGPptNfb9ShT7Qzi2WH2-51" target="xGPptNfb9ShT7Qzi2WH2-74">
          <mxGeometry width="50" height="50" relative="1" as="geometry">
            <mxPoint x="600" y="530" as="sourcePoint" />
            <mxPoint x="730" y="690" as="targetPoint" />
            <Array as="points">
              <mxPoint x="1000" y="580" />
            </Array>
          </mxGeometry>
        </mxCell>
        <mxCell id="xGPptNfb9ShT7Qzi2WH2-71" value="Stores Icon" style="rounded=0;whiteSpace=wrap;html=1;" vertex="1" parent="1">
          <mxGeometry x="320" y="700" width="120" height="60" as="geometry" />
        </mxCell>
        <mxCell id="xGPptNfb9ShT7Qzi2WH2-72" value="Home Page Icon" style="rounded=0;whiteSpace=wrap;html=1;" vertex="1" parent="1">
          <mxGeometry x="180" y="695" width="120" height="60" as="geometry" />
        </mxCell>
        <mxCell id="xGPptNfb9ShT7Qzi2WH2-74" value="Clinic Icon" style="rounded=0;whiteSpace=wrap;html=1;" vertex="1" parent="1">
          <mxGeometry x="940" y="710" width="120" height="60" as="geometry" />
        </mxCell>
        <mxCell id="xGPptNfb9ShT7Qzi2WH2-75" value="List Of Items/Products" style="ellipse;whiteSpace=wrap;html=1;" vertex="1" parent="1">
          <mxGeometry y="835" width="140" height="50" as="geometry" />
        </mxCell>
        <mxCell id="xGPptNfb9ShT7Qzi2WH2-76" value="Location" style="ellipse;whiteSpace=wrap;html=1;" vertex="1" parent="1">
          <mxGeometry x="135" y="857" width="140" height="50" as="geometry" />
        </mxCell>
        <mxCell id="xGPptNfb9ShT7Qzi2WH2-77" value="Profile Photo&amp;nbsp;" style="ellipse;whiteSpace=wrap;html=1;" vertex="1" parent="1">
          <mxGeometry x="260" y="885" width="140" height="50" as="geometry" />
        </mxCell>
        <mxCell id="xGPptNfb9ShT7Qzi2WH2-78" value="Phone Number&amp;nbsp;" style="ellipse;whiteSpace=wrap;html=1;" vertex="1" parent="1">
          <mxGeometry x="634" y="824" width="140" height="50" as="geometry" />
        </mxCell>
        <mxCell id="xGPptNfb9ShT7Qzi2WH2-79" value="Store Name" style="ellipse;whiteSpace=wrap;html=1;" vertex="1" parent="1">
          <mxGeometry x="405" y="886" width="140" height="50" as="geometry" />
        </mxCell>
        <mxCell id="xGPptNfb9ShT7Qzi2WH2-80" value="Description" style="ellipse;whiteSpace=wrap;html=1;" vertex="1" parent="1">
          <mxGeometry x="538" y="863" width="140" height="50" as="geometry" />
        </mxCell>
        <mxCell id="xGPptNfb9ShT7Qzi2WH2-81" value="" style="endArrow=classic;html=1;rounded=0;exitX=0.5;exitY=1;exitDx=0;exitDy=0;entryX=0.5;entryY=0;entryDx=0;entryDy=0;" edge="1" parent="1" source="xGPptNfb9ShT7Qzi2WH2-71" target="xGPptNfb9ShT7Qzi2WH2-75">
          <mxGeometry width="50" height="50" relative="1" as="geometry">
            <mxPoint x="410" y="920" as="sourcePoint" />
            <mxPoint x="460" y="870" as="targetPoint" />
          </mxGeometry>
        </mxCell>
        <mxCell id="xGPptNfb9ShT7Qzi2WH2-82" value="" style="endArrow=classic;html=1;rounded=0;exitX=0.5;exitY=1;exitDx=0;exitDy=0;entryX=0.5;entryY=0;entryDx=0;entryDy=0;" edge="1" parent="1" source="xGPptNfb9ShT7Qzi2WH2-71" target="xGPptNfb9ShT7Qzi2WH2-76">
          <mxGeometry width="50" height="50" relative="1" as="geometry">
            <mxPoint x="410" y="920" as="sourcePoint" />
            <mxPoint x="460" y="870" as="targetPoint" />
          </mxGeometry>
        </mxCell>
        <mxCell id="xGPptNfb9ShT7Qzi2WH2-83" value="" style="endArrow=classic;html=1;rounded=0;exitX=0.5;exitY=1;exitDx=0;exitDy=0;entryX=0.5;entryY=0;entryDx=0;entryDy=0;" edge="1" parent="1" source="xGPptNfb9ShT7Qzi2WH2-71" target="xGPptNfb9ShT7Qzi2WH2-77">
          <mxGeometry width="50" height="50" relative="1" as="geometry">
            <mxPoint x="410" y="920" as="sourcePoint" />
            <mxPoint x="460" y="870" as="targetPoint" />
          </mxGeometry>
        </mxCell>
        <mxCell id="xGPptNfb9ShT7Qzi2WH2-84" value="" style="endArrow=classic;html=1;rounded=0;exitX=0.5;exitY=1;exitDx=0;exitDy=0;entryX=0.5;entryY=0;entryDx=0;entryDy=0;" edge="1" parent="1" source="xGPptNfb9ShT7Qzi2WH2-71" target="xGPptNfb9ShT7Qzi2WH2-79">
          <mxGeometry width="50" height="50" relative="1" as="geometry">
            <mxPoint x="410" y="920" as="sourcePoint" />
            <mxPoint x="460" y="870" as="targetPoint" />
          </mxGeometry>
        </mxCell>
        <mxCell id="xGPptNfb9ShT7Qzi2WH2-85" value="" style="endArrow=classic;html=1;rounded=0;entryX=0.5;entryY=0;entryDx=0;entryDy=0;exitX=0.5;exitY=1;exitDx=0;exitDy=0;" edge="1" parent="1" source="xGPptNfb9ShT7Qzi2WH2-71" target="xGPptNfb9ShT7Qzi2WH2-80">
          <mxGeometry width="50" height="50" relative="1" as="geometry">
            <mxPoint x="370" y="770" as="sourcePoint" />
            <mxPoint x="460" y="870" as="targetPoint" />
          </mxGeometry>
        </mxCell>
        <mxCell id="xGPptNfb9ShT7Qzi2WH2-86" value="" style="endArrow=classic;html=1;rounded=0;entryX=0.5;entryY=0;entryDx=0;entryDy=0;" edge="1" parent="1" target="xGPptNfb9ShT7Qzi2WH2-78">
          <mxGeometry width="50" height="50" relative="1" as="geometry">
            <mxPoint x="380" y="760" as="sourcePoint" />
            <mxPoint x="460" y="870" as="targetPoint" />
          </mxGeometry>
        </mxCell>
        <mxCell id="xGPptNfb9ShT7Qzi2WH2-89" value="Clinic Name" style="ellipse;whiteSpace=wrap;html=1;" vertex="1" parent="1">
          <mxGeometry x="810" y="840" width="150" height="60" as="geometry" />
        </mxCell>
        <mxCell id="xGPptNfb9ShT7Qzi2WH2-90" value="Clinic Location" style="ellipse;whiteSpace=wrap;html=1;" vertex="1" parent="1">
          <mxGeometry x="1020" y="842" width="150" height="60" as="geometry" />
        </mxCell>
        <mxCell id="xGPptNfb9ShT7Qzi2WH2-91" value="List Of Doctors&amp;nbsp;" style="rounded=0;whiteSpace=wrap;html=1;" vertex="1" parent="1">
          <mxGeometry x="1220" y="710" width="120" height="60" as="geometry" />
        </mxCell>
        <mxCell id="xGPptNfb9ShT7Qzi2WH2-92" value="" style="endArrow=classic;html=1;rounded=0;exitX=1;exitY=0.5;exitDx=0;exitDy=0;entryX=0;entryY=0.5;entryDx=0;entryDy=0;" edge="1" parent="1" source="xGPptNfb9ShT7Qzi2WH2-74" target="xGPptNfb9ShT7Qzi2WH2-91">
          <mxGeometry width="50" height="50" relative="1" as="geometry">
            <mxPoint x="860" y="770" as="sourcePoint" />
            <mxPoint x="910" y="720" as="targetPoint" />
          </mxGeometry>
        </mxCell>
        <mxCell id="xGPptNfb9ShT7Qzi2WH2-93" value="" style="endArrow=classic;html=1;rounded=0;exitX=0.5;exitY=1;exitDx=0;exitDy=0;entryX=0.5;entryY=0;entryDx=0;entryDy=0;" edge="1" parent="1" source="xGPptNfb9ShT7Qzi2WH2-74" target="xGPptNfb9ShT7Qzi2WH2-89">
          <mxGeometry width="50" height="50" relative="1" as="geometry">
            <mxPoint x="860" y="770" as="sourcePoint" />
            <mxPoint x="910" y="720" as="targetPoint" />
          </mxGeometry>
        </mxCell>
        <mxCell id="xGPptNfb9ShT7Qzi2WH2-94" value="" style="endArrow=classic;html=1;rounded=0;entryX=0.5;entryY=0;entryDx=0;entryDy=0;exitX=0.5;exitY=1;exitDx=0;exitDy=0;" edge="1" parent="1" source="xGPptNfb9ShT7Qzi2WH2-74" target="xGPptNfb9ShT7Qzi2WH2-90">
          <mxGeometry width="50" height="50" relative="1" as="geometry">
            <mxPoint x="1000" y="770" as="sourcePoint" />
            <mxPoint x="910" y="720" as="targetPoint" />
          </mxGeometry>
        </mxCell>
        <mxCell id="xGPptNfb9ShT7Qzi2WH2-95" value="" style="endArrow=classic;html=1;rounded=0;exitX=1;exitY=0.5;exitDx=0;exitDy=0;entryX=1;entryY=0.5;entryDx=0;entryDy=0;" edge="1" parent="1" source="xGPptNfb9ShT7Qzi2WH2-91" target="xGPptNfb9ShT7Qzi2WH2-96">
          <mxGeometry width="50" height="50" relative="1" as="geometry">
            <mxPoint x="860" y="770" as="sourcePoint" />
            <mxPoint x="1280" y="830" as="targetPoint" />
            <Array as="points">
              <mxPoint x="1390" y="740" />
              <mxPoint x="1390" y="255" />
            </Array>
          </mxGeometry>
        </mxCell>
        <mxCell id="xGPptNfb9ShT7Qzi2WH2-96" value="Doctor Profile&amp;nbsp;" style="rounded=0;whiteSpace=wrap;html=1;" vertex="1" parent="1">
          <mxGeometry x="1220" y="225" width="120" height="60" as="geometry" />
        </mxCell>
        <mxCell id="xGPptNfb9ShT7Qzi2WH2-97" value="" style="endArrow=classic;html=1;rounded=0;entryX=1;entryY=1;entryDx=0;entryDy=0;exitX=0.5;exitY=1;exitDx=0;exitDy=0;" edge="1" parent="1" source="xGPptNfb9ShT7Qzi2WH2-96" target="xGPptNfb9ShT7Qzi2WH2-43">
          <mxGeometry width="50" height="50" relative="1" as="geometry">
            <mxPoint x="900" y="490" as="sourcePoint" />
            <mxPoint x="950" y="440" as="targetPoint" />
            <Array as="points">
              <mxPoint x="1280" y="480" />
              <mxPoint x="564" y="480" />
            </Array>
          </mxGeometry>
        </mxCell>
        <mxCell id="xGPptNfb9ShT7Qzi2WH2-98" value="" style="endArrow=classic;html=1;rounded=0;entryX=0.5;entryY=1;entryDx=0;entryDy=0;exitX=0.25;exitY=1;exitDx=0;exitDy=0;" edge="1" parent="1" source="xGPptNfb9ShT7Qzi2WH2-96" target="xGPptNfb9ShT7Qzi2WH2-44">
          <mxGeometry width="50" height="50" relative="1" as="geometry">
            <mxPoint x="900" y="490" as="sourcePoint" />
            <mxPoint x="950" y="440" as="targetPoint" />
            <Array as="points">
              <mxPoint x="1250" y="430" />
              <mxPoint x="685" y="430" />
            </Array>
          </mxGeometry>
        </mxCell>
        <mxCell id="xGPptNfb9ShT7Qzi2WH2-99" value="" style="endArrow=classic;html=1;rounded=0;entryX=1;entryY=0.5;entryDx=0;entryDy=0;exitX=0;exitY=0.5;exitDx=0;exitDy=0;" edge="1" parent="1" source="xGPptNfb9ShT7Qzi2WH2-96" target="xGPptNfb9ShT7Qzi2WH2-49">
          <mxGeometry width="50" height="50" relative="1" as="geometry">
            <mxPoint x="900" y="490" as="sourcePoint" />
            <mxPoint x="950" y="440" as="targetPoint" />
            <Array as="points">
              <mxPoint x="1110" y="255" />
              <mxPoint x="1110" y="360" />
            </Array>
          </mxGeometry>
        </mxCell>
        <mxCell id="xGPptNfb9ShT7Qzi2WH2-100" value="" style="endArrow=classic;html=1;rounded=0;exitX=0.75;exitY=0;exitDx=0;exitDy=0;entryX=0.5;entryY=0;entryDx=0;entryDy=0;" edge="1" parent="1" source="xGPptNfb9ShT7Qzi2WH2-51" target="xGPptNfb9ShT7Qzi2WH2-38">
          <mxGeometry width="50" height="50" relative="1" as="geometry">
            <mxPoint x="880" y="500" as="sourcePoint" />
            <mxPoint x="930" y="450" as="targetPoint" />
            <Array as="points">
              <mxPoint x="491" y="510" />
              <mxPoint x="1460" y="510" />
              <mxPoint x="1460" y="180" />
              <mxPoint x="600" y="180" />
            </Array>
          </mxGeometry>
        </mxCell>
        <mxCell id="xGPptNfb9ShT7Qzi2WH2-101" value="" style="endArrow=classic;html=1;rounded=0;exitX=0;exitY=0.5;exitDx=0;exitDy=0;" edge="1" parent="1" source="xGPptNfb9ShT7Qzi2WH2-72">
          <mxGeometry width="50" height="50" relative="1" as="geometry">
            <mxPoint x="880" y="500" as="sourcePoint" />
            <mxPoint x="110" y="480" as="targetPoint" />
            <Array as="points">
              <mxPoint x="60" y="725" />
              <mxPoint x="60" y="480" />
            </Array>
          </mxGeometry>
        </mxCell>
        <mxCell id="xGPptNfb9ShT7Qzi2WH2-102" value="Pet Icon" style="rounded=0;whiteSpace=wrap;html=1;" vertex="1" parent="1">
          <mxGeometry x="730" y="950" width="120" height="60" as="geometry" />
        </mxCell>
        <mxCell id="xGPptNfb9ShT7Qzi2WH2-103" value="" style="endArrow=classic;html=1;rounded=0;exitX=0.75;exitY=1;exitDx=0;exitDy=0;entryX=0.5;entryY=0;entryDx=0;entryDy=0;" edge="1" parent="1" source="xGPptNfb9ShT7Qzi2WH2-51" target="xGPptNfb9ShT7Qzi2WH2-102">
          <mxGeometry width="50" height="50" relative="1" as="geometry">
            <mxPoint x="880" y="700" as="sourcePoint" />
            <mxPoint x="930" y="650" as="targetPoint" />
            <Array as="points">
              <mxPoint x="491" y="720" />
              <mxPoint x="790" y="720" />
            </Array>
          </mxGeometry>
        </mxCell>
        <mxCell id="xGPptNfb9ShT7Qzi2WH2-104" value="Pet Name" style="ellipse;whiteSpace=wrap;html=1;" vertex="1" parent="1">
          <mxGeometry x="401" y="1030" width="150" height="60" as="geometry" />
        </mxCell>
        <mxCell id="xGPptNfb9ShT7Qzi2WH2-105" value="Pet Color" style="ellipse;whiteSpace=wrap;html=1;" vertex="1" parent="1">
          <mxGeometry x="802" y="1140" width="150" height="60" as="geometry" />
        </mxCell>
        <mxCell id="xGPptNfb9ShT7Qzi2WH2-106" value="Pet Gender" style="ellipse;whiteSpace=wrap;html=1;" vertex="1" parent="1">
          <mxGeometry x="650" y="1120" width="150" height="60" as="geometry" />
        </mxCell>
        <mxCell id="xGPptNfb9ShT7Qzi2WH2-107" value="Pet Photo" style="ellipse;whiteSpace=wrap;html=1;" vertex="1" parent="1">
          <mxGeometry x="910" y="1090" width="150" height="60" as="geometry" />
        </mxCell>
        <mxCell id="xGPptNfb9ShT7Qzi2WH2-108" value="Pet Age" style="ellipse;whiteSpace=wrap;html=1;" vertex="1" parent="1">
          <mxGeometry x="521" y="1080" width="150" height="60" as="geometry" />
        </mxCell>
        <mxCell id="xGPptNfb9ShT7Qzi2WH2-109" value="Pet Price" style="ellipse;whiteSpace=wrap;html=1;" vertex="1" parent="1">
          <mxGeometry x="1010" y="1040" width="150" height="60" as="geometry" />
        </mxCell>
        <mxCell id="xGPptNfb9ShT7Qzi2WH2-110" value="" style="endArrow=classic;html=1;rounded=0;exitX=0;exitY=0.25;exitDx=0;exitDy=0;entryX=0.5;entryY=0;entryDx=0;entryDy=0;" edge="1" parent="1" source="xGPptNfb9ShT7Qzi2WH2-102" target="xGPptNfb9ShT7Qzi2WH2-104">
          <mxGeometry width="50" height="50" relative="1" as="geometry">
            <mxPoint x="880" y="920" as="sourcePoint" />
            <mxPoint x="930" y="870" as="targetPoint" />
          </mxGeometry>
        </mxCell>
        <mxCell id="xGPptNfb9ShT7Qzi2WH2-111" value="" style="endArrow=classic;html=1;rounded=0;exitX=0;exitY=0.5;exitDx=0;exitDy=0;entryX=0.5;entryY=0;entryDx=0;entryDy=0;" edge="1" parent="1" source="xGPptNfb9ShT7Qzi2WH2-102" target="xGPptNfb9ShT7Qzi2WH2-108">
          <mxGeometry width="50" height="50" relative="1" as="geometry">
            <mxPoint x="880" y="920" as="sourcePoint" />
            <mxPoint x="930" y="870" as="targetPoint" />
          </mxGeometry>
        </mxCell>
        <mxCell id="xGPptNfb9ShT7Qzi2WH2-112" value="" style="endArrow=classic;html=1;rounded=0;exitX=0.25;exitY=1;exitDx=0;exitDy=0;entryX=0.5;entryY=0;entryDx=0;entryDy=0;" edge="1" parent="1" source="xGPptNfb9ShT7Qzi2WH2-102" target="xGPptNfb9ShT7Qzi2WH2-106">
          <mxGeometry width="50" height="50" relative="1" as="geometry">
            <mxPoint x="880" y="920" as="sourcePoint" />
            <mxPoint x="930" y="870" as="targetPoint" />
          </mxGeometry>
        </mxCell>
        <mxCell id="xGPptNfb9ShT7Qzi2WH2-113" value="" style="endArrow=classic;html=1;rounded=0;exitX=0.5;exitY=1;exitDx=0;exitDy=0;entryX=0.5;entryY=0;entryDx=0;entryDy=0;" edge="1" parent="1" source="xGPptNfb9ShT7Qzi2WH2-102" target="xGPptNfb9ShT7Qzi2WH2-105">
          <mxGeometry width="50" height="50" relative="1" as="geometry">
            <mxPoint x="880" y="920" as="sourcePoint" />
            <mxPoint x="930" y="870" as="targetPoint" />
          </mxGeometry>
        </mxCell>
        <mxCell id="xGPptNfb9ShT7Qzi2WH2-114" value="" style="endArrow=classic;html=1;rounded=0;exitX=0.75;exitY=1;exitDx=0;exitDy=0;entryX=0.5;entryY=0;entryDx=0;entryDy=0;" edge="1" parent="1" source="xGPptNfb9ShT7Qzi2WH2-102" target="xGPptNfb9ShT7Qzi2WH2-107">
          <mxGeometry width="50" height="50" relative="1" as="geometry">
            <mxPoint x="880" y="920" as="sourcePoint" />
            <mxPoint x="930" y="870" as="targetPoint" />
          </mxGeometry>
        </mxCell>
        <mxCell id="xGPptNfb9ShT7Qzi2WH2-115" value="" style="endArrow=classic;html=1;rounded=0;exitX=1;exitY=0.75;exitDx=0;exitDy=0;entryX=0.5;entryY=0;entryDx=0;entryDy=0;" edge="1" parent="1" source="xGPptNfb9ShT7Qzi2WH2-102" target="xGPptNfb9ShT7Qzi2WH2-109">
          <mxGeometry width="50" height="50" relative="1" as="geometry">
            <mxPoint x="880" y="920" as="sourcePoint" />
            <mxPoint x="930" y="870" as="targetPoint" />
          </mxGeometry>
        </mxCell>
        <mxCell id="xGPptNfb9ShT7Qzi2WH2-116" value="State: Sell Or Adopt" style="ellipse;whiteSpace=wrap;html=1;" vertex="1" parent="1">
          <mxGeometry x="1050" y="960" width="160" height="70" as="geometry" />
        </mxCell>
        <mxCell id="xGPptNfb9ShT7Qzi2WH2-117" value="" style="endArrow=classic;html=1;rounded=0;exitX=1;exitY=0.25;exitDx=0;exitDy=0;entryX=0;entryY=0.5;entryDx=0;entryDy=0;" edge="1" parent="1" source="xGPptNfb9ShT7Qzi2WH2-102" target="xGPptNfb9ShT7Qzi2WH2-116">
          <mxGeometry width="50" height="50" relative="1" as="geometry">
            <mxPoint x="880" y="920" as="sourcePoint" />
            <mxPoint x="930" y="870" as="targetPoint" />
          </mxGeometry>
        </mxCell>
      </root>
    </mxGraphModel>
  </diagram>
</mxfile>
